<svg xmlns="http://www.w3.org/2000/svg" width="20" height="20" viewBox="0 0 20 20" fill="none">
<path fill-rule="evenodd" clip-rule="evenodd" d="M10.0478 1.45831C11.8734 1.4583 13.3073 1.4583 14.4268 1.6088C15.574 1.76305 16.4842 2.08558 17.1994 2.80074C17.9146 3.5159 18.2371 4.42612 18.3913 5.57333C18.5418 6.69285 18.5418 8.12676 18.5418 9.95231V10.0476C18.5418 11.8732 18.5418 13.3071 18.3913 14.4266C18.2371 15.5738 17.9146 16.4841 17.1994 17.1992C16.4842 17.9144 15.574 18.2369 14.4268 18.3911C13.3073 18.5416 11.8734 18.5416 10.0478 18.5416H9.9525C8.12691 18.5416 6.69303 18.5416 5.57351 18.3911C4.4263 18.2369 3.51609 17.9144 2.80092 17.1992C2.08576 16.4841 1.76323 15.5738 1.60899 14.4266C1.45848 13.3071 1.45849 11.8732 1.4585 10.0476V9.95231C1.45849 8.12674 1.45848 6.69285 1.60899 5.57333C1.76323 4.42612 2.08576 3.5159 2.80092 2.80074C3.51609 2.08558 4.4263 1.76305 5.57351 1.6088C6.69303 1.4583 8.12693 1.4583 9.9525 1.45831H10.0478ZM8.84333 6.86749C8.29777 6.32192 7.41324 6.32192 6.86767 6.86749C6.3221 7.41305 6.3221 8.29759 6.86767 8.84315L7.58255 9.55806C7.82664 9.80215 7.82664 10.1978 7.58255 10.4419C7.33848 10.686 6.94275 10.686 6.69867 10.4419L5.98379 9.72706C4.95006 8.69331 4.95006 7.01732 5.98379 5.9836C7.0175 4.94988 8.6935 4.94988 9.72725 5.9836L14.0166 10.2729C15.0502 11.3066 15.0502 12.9826 14.0166 14.0164C12.9828 15.0501 11.3068 15.0501 10.2731 14.0164L8.66458 12.4079C8.26195 12.0052 8.06543 11.5211 8.08558 11.0318C8.10526 10.5537 8.32945 10.1316 8.6525 9.83548C9.31725 9.2259 10.4244 9.12365 11.2754 9.97473L12.1087 10.8081C12.3528 11.0521 12.3528 11.4478 12.1087 11.6919C11.8647 11.936 11.469 11.936 11.2249 11.6919L10.3916 10.8586C10.1937 10.6608 10.0134 10.6087 9.88041 10.6073C9.73825 10.6057 9.60116 10.6615 9.49725 10.7567C9.393 10.8524 9.33916 10.9713 9.3345 11.0832C9.33041 11.1838 9.36333 11.3388 9.5485 11.524L11.157 13.1325C11.7026 13.6781 12.5871 13.6781 13.1327 13.1325C13.6782 12.5869 13.6782 11.7024 13.1327 11.1568L8.84333 6.86749Z" fill="#7C4DFF"/>
</svg>