<svg xmlns="http://www.w3.org/2000/svg" width="20" height="20" viewBox="0 0 20 20" fill="none">
<path d="M2.08325 10.0002C2.08325 6.26821 2.08325 4.40224 3.24262 3.24286C4.40199 2.0835 6.26797 2.0835 9.99992 2.0835C13.7318 2.0835 15.5978 2.0835 16.7573 3.24286C17.9166 4.40224 17.9166 6.26821 17.9166 10.0002C17.9166 13.7321 17.9166 15.5981 16.7573 16.7575C15.5978 17.9168 13.7318 17.9168 9.99992 17.9168C6.26797 17.9168 4.40199 17.9168 3.24262 16.7575C2.08325 15.5981 2.08325 13.7321 2.08325 10.0002Z" stroke="#7C4DFF" stroke-width="1.5"/>
<path opacity="0.4" d="M13.3334 13.5418C13.6786 13.5418 13.9584 13.8217 13.9584 14.1668C13.9584 14.512 13.6786 14.7918 13.3334 14.7918V13.5418ZM6.66675 14.7918C6.32157 14.7918 6.04175 14.512 6.04175 14.1668C6.04175 13.8217 6.32157 13.5418 6.66675 13.5418V14.7918ZM9.37508 5.8335C9.37508 5.48832 9.65491 5.2085 10.0001 5.2085C10.3452 5.2085 10.6251 5.48832 10.6251 5.8335H9.37508ZM11.6352 9.14791C11.8758 8.90033 12.2715 8.89475 12.519 9.13533C12.7666 9.37591 12.7722 9.77158 12.5316 10.0191L11.6352 9.14791ZM7.46857 10.0191C7.22799 9.77158 7.23361 9.37591 7.48113 9.13533C7.72865 8.89475 8.12434 8.90033 8.36491 9.14791L7.46857 10.0191ZM13.3334 14.7918H6.66675V13.5418H13.3334V14.7918ZM9.37508 11.6668V5.8335H10.6251V11.6668H9.37508ZM10.0001 11.0418C9.93075 11.0418 9.90708 11.0641 9.94541 11.0436C9.97883 11.0257 10.0333 10.9892 10.1089 10.9247C10.2607 10.7955 10.4386 10.6052 10.6302 10.3792C10.8193 10.1558 11.0043 9.91891 11.1757 9.70075C11.3358 9.49683 11.5043 9.2825 11.6352 9.14791L12.5316 10.0191C12.4577 10.0952 12.3363 10.2467 12.1587 10.4728C11.9922 10.6848 11.7912 10.9424 11.5838 11.1872C11.3787 11.4293 11.149 11.6808 10.9194 11.8764C10.8044 11.9743 10.6747 12.071 10.5352 12.1457C10.4007 12.2177 10.2153 12.2918 10.0001 12.2918V11.0418ZM8.36491 9.14791C8.49583 9.2825 8.66433 9.49683 8.8245 9.70075C8.99583 9.91891 9.18083 10.1558 9.37 10.3792C9.56158 10.6052 9.7395 10.7955 9.89125 10.9247C9.96683 10.9892 10.0213 11.0257 10.0547 11.0436C10.0931 11.0641 10.0694 11.0418 10.0001 11.0418V12.2918C9.78483 12.2918 9.5995 12.2177 9.46491 12.1457C9.32541 12.071 9.19575 11.9743 9.08075 11.8764C8.85116 11.6808 8.6215 11.4293 8.41633 11.1872C8.20888 10.9424 8.00802 10.6848 7.84151 10.4728C7.66384 10.2467 7.54249 10.0952 7.46857 10.0191L8.36491 9.14791Z" fill="#7C4DFF"/>
</svg>