<svg xmlns="http://www.w3.org/2000/svg" width="20" height="20" viewBox="0 0 20 20" fill="none">
<path opacity="0.4" d="M17.5001 10.0001H15.8334C15.4459 10.0001 15.2522 10.0001 15.0932 10.0426C14.6618 10.1582 14.3249 10.4951 14.2093 10.9266C14.1667 11.0855 14.1667 11.2792 14.1667 11.6667C14.1667 12.0542 14.1667 12.248 14.2093 12.4069C14.3249 12.8383 14.6618 13.1752 15.0932 13.2908C15.2522 13.3334 15.4459 13.3334 15.8334 13.3334H17.5001" stroke="#7C4DFF" stroke-width="1.5" stroke-linecap="round" stroke-linejoin="round"/>
<path opacity="0.4" d="M8.33333 14.5834H5.41667M5.41667 14.5834H2.5M5.41667 14.5834V11.6667M5.41667 14.5834V17.5001" stroke="#7C4DFF" stroke-width="1.5" stroke-linecap="round" stroke-linejoin="round"/>
<path d="M11.6667 2.50006H4.16667C3.24619 2.50006 2.5 3.24625 2.5 4.16673C2.5 5.0872 3.24619 5.83339 4.16667 5.83339H15C15 5.05842 15 4.67093 14.9148 4.35301C14.6837 3.49029 14.0097 2.81641 13.1471 2.58524C12.8292 2.50006 12.4417 2.50006 11.6667 2.50006Z" stroke="#7C4DFF" stroke-width="1.5" stroke-linecap="round" stroke-linejoin="round"/>
<path d="M10 17.5001H12.5C14.857 17.5001 16.0355 17.5001 16.7677 16.7678C17.5 16.0356 17.5 14.8571 17.5 12.5001V10.8334C17.5 8.47638 17.5 7.29785 16.7677 6.56562C16.0355 5.83338 14.857 5.83338 12.5 5.83338H5.83333M2.5 10.0001V4.16672" stroke="#7C4DFF" stroke-width="1.5" stroke-linecap="round" stroke-linejoin="round"/>
</svg>