<svg xmlns="http://www.w3.org/2000/svg" width="20" height="20" viewBox="0 0 20 20" fill="none">
<path fill-rule="evenodd" clip-rule="evenodd" d="M11.7917 1.4585H8.20834C4.82994 1.4585 3.14074 1.4585 2.09121 2.51189C1.04167 3.56527 1.04167 5.26067 1.04167 8.6515V9.10108C1.04167 12.4918 1.04167 14.1872 2.09121 15.2407C2.57532 15.7265 3.25614 16.0507 4.13638 16.2133C4.40674 16.2633 4.54191 16.2882 4.60062 16.373C4.65934 16.4578 4.63522 16.5928 4.587 16.8627C4.47026 17.5163 4.4887 18.1072 4.90781 18.4206C5.34705 18.7412 6.04695 18.3987 7.44676 17.7137C7.6018 17.6377 7.75741 17.56 7.91331 17.4821L7.91568 17.4808C8.74675 17.0654 9.59367 16.6421 10.4968 16.4334C10.8897 16.3436 11.2896 16.3052 11.7917 16.294C15.1701 16.294 16.8593 16.294 17.9088 15.2407C18.9583 14.1872 18.9583 12.4918 18.9583 9.10108V8.6515C18.9583 5.26067 18.9583 3.56527 17.9088 2.51189C16.8593 1.4585 15.1701 1.4585 11.7917 1.4585ZM13.9583 11.2502C13.9583 11.5953 13.6785 11.8752 13.3333 11.8752H6.66667C6.3215 11.8752 6.04167 11.5953 6.04167 11.2502C6.04167 10.905 6.3215 10.6252 6.66667 10.6252H13.3333C13.6785 10.6252 13.9583 10.905 13.9583 11.2502ZM10.625 7.0835C10.625 7.42867 10.3452 7.7085 10 7.7085H6.66667C6.3215 7.7085 6.04167 7.42867 6.04167 7.0835C6.04167 6.73832 6.3215 6.4585 6.66667 6.4585H10C10.3452 6.4585 10.625 6.73832 10.625 7.0835Z" fill="#7C4DFF"/>
</svg>