<svg xmlns="http://www.w3.org/2000/svg" width="20" height="20" viewBox="0 0 20 20" fill="none">
  <path d="M2.08325 10.0001C2.08325 6.26815 2.08325 4.40218 3.24262 3.2428C4.40199 2.08343 6.26797 2.08344 9.99992 2.08344C13.7318 2.08344 15.5978 2.08343 16.7573 3.2428C17.9166 4.40218 17.9166 6.26815 17.9166 10.0001C17.9166 13.732 17.9166 15.598 16.7573 16.7574C15.5978 17.9168 13.7318 17.9168 9.99992 17.9168C6.26797 17.9168 4.40199 17.9168 3.24262 16.7574C2.08325 15.598 2.08325 13.732 2.08325 10.0001Z" stroke="#7C4DFF" stroke-width="1.5"/>
  <path opacity="0.4" d="M8.26299 6.66681L6.71429 7.76444C6.37259 8.00662 6.20175 8.1277 6.26187 8.23059C6.32201 8.33348 6.56363 8.33348 7.04686 8.33348H13.75" stroke="#7C4DFF" stroke-width="1.5" stroke-linecap="round" stroke-linejoin="round"/>
  <path opacity="0.4" d="M11.737 13.3335L13.2857 12.2358C13.6274 11.9936 13.7983 11.8726 13.7381 11.7697C13.678 11.6668 13.4364 11.6668 12.9532 11.6668H6.25" stroke="#7C4DFF" stroke-width="1.5" stroke-linecap="round" stroke-linejoin="round"/>
</svg>