<svg xmlns="http://www.w3.org/2000/svg" width="20" height="20" viewBox="0 0 20 20" fill="none">
  <g clip-path="url(#clip0_6333_7593)">
    <path opacity="0.4" d="M7.08325 9.16678L7.91659 10.0001M7.91659 10.0001L8.74992 10.8334M7.91659 10.0001L8.74992 9.16678M7.91659 10.0001L7.08325 10.8334" stroke="#7C4DFF" stroke-width="1.5" stroke-linecap="round"/>
    <path opacity="0.4" d="M2.91675 9.16678L3.75008 10.0001M3.75008 10.0001L4.58341 10.8334M3.75008 10.0001L4.58341 9.16678M3.75008 10.0001L2.91675 10.8334" stroke="#7C4DFF" stroke-width="1.5" stroke-linecap="round"/>
    <path opacity="0.4" d="M11.25 9.16678L12.0833 10.0001M12.0833 10.0001L12.9167 10.8334M12.0833 10.0001L12.9167 9.16678M12.0833 10.0001L11.25 10.8334" stroke="#7C4DFF" stroke-width="1.5" stroke-linecap="round"/>
    <path opacity="0.4" d="M15.4167 9.16678L16.2501 10.0001M16.2501 10.0001L17.0834 10.8334M16.2501 10.0001L17.0834 9.16678M16.2501 10.0001L15.4167 10.8334" stroke="#7C4DFF" stroke-width="1.5" stroke-linecap="round"/>
    <path d="M16.3614 13.3334C14.9591 15.6695 12.589 17.1849 11.1716 17.9329C10.6657 18.1999 10.4128 18.3334 9.99993 18.3334C9.5871 18.3334 9.33418 18.1999 8.82827 17.9329C7.41082 17.1849 5.04078 15.6695 3.63844 13.3334M17.4999 6.66678C17.4988 5.45432 17.4802 4.82419 17.1632 4.40452C16.8264 3.95869 16.065 3.74225 14.5422 3.30936C13.5018 3.01361 12.5846 2.6573 11.8518 2.33202C10.8528 1.88853 10.3533 1.66678 9.99993 1.66678C9.6466 1.66678 9.1471 1.88853 8.14802 2.33202C7.41526 2.6573 6.49813 3.0136 5.45771 3.30936C3.93488 3.74225 3.17345 3.95869 2.83669 4.40452C2.51969 4.82419 2.50109 5.45432 2.5 6.66678" stroke="#7C4DFF" stroke-width="1.5" stroke-linecap="round"/>
  </g>
  <defs>
    <clipPath id="clip0_6333_7593">
      <rect width="20" height="20" fill="white"/>
    </clipPath>
  </defs>
</svg>